# 3ds Max Wavefront OBJ Exporter v0.99 - (c)2007 guruware
# File Created: 02.10.2024 17:28:46

#
# object Card
#

v  28.1359 0.0000 43.1359
v  -28.1359 0.0000 43.1359
v  -28.1359 0.0000 -43.1359
v  28.1359 0.0000 -43.1359
v  -25.7619 1.3134 -40.5356
v  -25.7619 1.3134 15.9008
v  25.7619 1.3134 15.9008
v  25.7619 1.3134 -40.5355
v  -29.6275 0.1587 -45.0000
v  -29.6275 1.8413 -45.0000
v  29.6275 1.8413 -45.0000
v  29.6275 0.1587 -45.0000
v  -30.0000 0.1587 44.6275
v  -30.0000 1.8413 44.6275
v  -30.0000 1.8413 -44.6275
v  -30.0000 0.1587 -44.6275
v  29.6275 0.1587 45.0000
v  29.6275 1.8413 45.0000
v  -29.6275 1.8413 45.0000
v  -29.6275 0.1587 45.0000
v  30.0000 0.1587 -44.6275
v  30.0000 1.8413 -44.6275
v  30.0000 1.8413 44.6275
v  30.0000 0.1587 44.6275
v  29.6275 -0.3407 44.6275
v  29.6275 -0.3407 -44.6275
v  29.8603 -0.1535 -44.8603
v  29.8603 -0.1535 44.8603
v  -29.6275 -0.3407 44.6275
v  -29.8603 -0.1535 44.8603
v  -29.6275 -0.3407 -44.6275
v  -29.8603 -0.1535 -44.8603
v  -29.6275 2.3407 -44.6275
v  29.6275 2.3407 -44.6275
v  29.8603 2.1535 -44.8603
v  -29.8603 2.1535 -44.8603
v  -29.6275 2.3407 44.6275
v  -29.8603 2.1535 44.8603
v  29.6275 2.3407 44.6275
v  29.8603 2.1535 44.8603
v  -28.1359 2.0000 -43.1359
v  28.1359 2.0000 -43.1359
v  -28.1359 2.0000 43.1359
v  -28.1359 2.0000 18.2485
v  -28.1359 2.0000 17.0053
v  28.1359 2.0000 43.1359
v  28.1359 2.0000 17.0054
v  28.1359 2.0000 18.2485
v  -25.7619 1.3134 42.0966
v  25.7619 1.3134 42.0966
v  25.7619 1.3134 19.5405
v  -25.7619 1.3134 19.5405
v  -27.7250 1.5509 40.5827
v  -27.7250 2.4207 40.5827
v  -28.5161 2.4207 37.6304
v  -28.5161 1.5509 37.6304
v  -25.5638 1.5509 42.7440
v  -25.5638 2.4207 42.7440
v  -22.6115 1.5509 43.5351
v  -22.6115 2.4207 43.5351
v  -19.6592 1.5509 42.7440
v  -19.6592 2.4207 42.7440
v  -17.4979 1.5509 40.5827
v  -17.4979 2.4207 40.5827
v  -16.7069 1.5509 37.6304
v  -16.7069 2.4207 37.6304
v  -17.4979 1.5509 34.6781
v  -17.4979 2.4207 34.6781
v  -19.6592 1.5509 32.5169
v  -19.6592 2.4207 32.5169
v  -22.6115 1.5509 31.7258
v  -22.6115 2.4207 31.7258
v  -25.5638 1.5509 32.5169
v  -25.5638 2.4207 32.5169
v  -27.7250 1.5509 34.6781
v  -27.7250 2.4207 34.6781
v  -27.2613 2.9379 40.3150
v  -25.2961 2.9379 42.2803
v  -25.2961 2.9379 32.9806
v  -27.2613 2.9379 34.9458
v  -27.6091 2.8086 40.5158
v  -28.3822 2.8086 37.6304
v  -25.4969 2.8086 42.6281
v  -22.6115 2.8086 43.4012
v  -19.7261 2.8086 42.6281
v  -17.6139 2.8086 40.5158
v  -16.8407 2.8086 37.6304
v  -17.6139 2.8086 34.7451
v  -19.7261 2.8086 32.6328
v  -22.6115 2.8086 31.8597
v  -25.4969 2.8086 32.6328
v  -27.6091 2.8086 34.7451
v  -27.9807 2.9379 37.6304
v  -22.6115 2.9379 42.9996
v  -19.9269 2.9379 42.2803
v  -17.9616 2.9379 40.3150
v  -17.2423 2.9379 37.6304
v  -17.9616 2.9379 34.9459
v  -19.9269 2.9379 32.9806
v  -22.6115 2.9379 32.2613
v  27.7250 1.5509 40.5828
v  28.5161 1.5509 37.6305
v  28.5161 2.4207 37.6305
v  27.7250 2.4207 40.5828
v  25.5638 1.5509 42.7440
v  25.5638 2.4207 42.7440
v  22.6115 1.5509 43.5351
v  22.6115 2.4207 43.5351
v  19.6592 1.5509 42.7440
v  19.6592 2.4207 42.7440
v  17.4979 1.5509 40.5828
v  17.4979 2.4207 40.5828
v  16.7069 1.5509 37.6305
v  16.7069 2.4207 37.6305
v  17.4979 1.5509 34.6782
v  17.4979 2.4207 34.6782
v  19.6592 1.5509 32.5169
v  19.6592 2.4207 32.5169
v  22.6115 1.5509 31.7258
v  22.6115 2.4207 31.7258
v  25.5638 1.5509 32.5169
v  25.5638 2.4207 32.5169
v  27.7250 1.5509 34.6781
v  27.7250 2.4207 34.6781
v  27.2613 2.9379 40.3150
v  27.2613 2.9379 34.9459
v  25.2961 2.9379 32.9806
v  25.2961 2.9379 42.2803
v  28.3822 2.8086 37.6305
v  27.6091 2.8086 40.5158
v  25.4968 2.8086 42.6281
v  22.6115 2.8086 43.4012
v  19.7261 2.8086 42.6281
v  17.6138 2.8086 40.5158
v  16.8407 2.8086 37.6305
v  17.6138 2.8086 34.7451
v  19.7261 2.8086 32.6328
v  22.6115 2.8086 31.8597
v  25.4968 2.8086 32.6328
v  27.6091 2.8086 34.7451
v  27.9806 2.9379 37.6305
v  22.6115 2.9379 42.9996
v  19.9269 2.9379 42.2803
v  17.9616 2.9379 40.3150
v  17.2423 2.9379 37.6305
v  17.9616 2.9379 34.9459
v  19.9269 2.9379 32.9806
v  22.6115 2.9379 32.2613
# 148 vertices

vn 0.0000 -1.0000 -0.0000
vn 0.0000 1.0000 -0.0000
vn -0.2139 -0.1518 -0.9650
vn -0.2139 0.1518 -0.9650
vn 0.2139 0.1518 -0.9650
vn 0.2139 -0.1518 -0.9650
vn -0.9650 -0.1518 0.2139
vn -0.9650 0.1518 0.2139
vn -0.9650 0.1518 -0.2139
vn -0.9650 -0.1518 -0.2139
vn 0.2139 -0.1518 0.9650
vn 0.2139 0.1518 0.9650
vn -0.2139 0.1518 0.9650
vn -0.2139 -0.1518 0.9650
vn 0.9650 -0.1518 -0.2139
vn 0.9650 0.1518 -0.2139
vn 0.9650 0.1518 0.2139
vn 0.9650 -0.1518 0.2139
vn 0.2295 -0.9459 0.2295
vn 0.2295 -0.9459 -0.2295
vn 0.5954 -0.5395 -0.5954
vn 0.5954 -0.5395 0.5954
vn -0.2295 -0.9459 0.2295
vn -0.5954 -0.5395 0.5954
vn -0.2295 -0.9459 -0.2295
vn -0.5954 -0.5395 -0.5954
vn -0.2295 0.9459 -0.2295
vn 0.2295 0.9459 -0.2295
vn 0.5954 0.5395 -0.5954
vn -0.5954 0.5395 -0.5954
vn -0.2295 0.9459 0.2295
vn -0.5954 0.5395 0.5954
vn 0.2295 0.9459 0.2295
vn 0.5954 0.5395 0.5954
vn -0.1128 -0.9872 -0.1128
vn -0.1128 -0.9872 0.1128
vn 0.1128 -0.9872 -0.1128
vn 0.1128 -0.9872 0.1128
vn 0.1181 0.9858 0.1190
vn -0.1181 0.9858 0.1190
vn 0.1366 0.9825 -0.1270
vn 0.1603 0.9862 0.0414
vn 0.1630 0.9857 -0.0423
vn -0.1366 0.9825 -0.1270
vn -0.1630 0.9857 -0.0423
vn -0.1603 0.9862 0.0414
vn 0.1441 0.9813 0.1275
vn -0.1441 0.9813 0.1275
vn 0.1252 0.9406 -0.3156
vn -0.1252 0.9406 -0.3156
vn -0.1244 0.9346 -0.3333
vn 0.1244 0.9346 -0.3333
vn -0.1277 0.9537 0.2722
vn 0.1277 0.9537 0.2722
vn -0.8660 0.0000 0.5000
vn -0.8547 0.1611 0.4935
vn -0.9869 0.1611 -0.0000
vn -1.0000 0.0000 -0.0000
vn -0.5000 0.0000 0.8660
vn -0.4935 0.1611 0.8547
vn -0.0000 0.0000 1.0000
vn -0.0000 0.1611 0.9869
vn 0.5000 0.0000 0.8660
vn 0.4935 0.1611 0.8547
vn 0.8660 0.0000 0.5000
vn 0.8547 0.1611 0.4935
vn 1.0000 0.0000 0.0000
vn 0.9869 0.1611 0.0000
vn 0.8660 0.0000 -0.5000
vn 0.8547 0.1611 -0.4935
vn 0.5000 0.0000 -0.8660
vn 0.4935 0.1611 -0.8547
vn 0.0000 0.0000 -1.0000
vn 0.0000 0.1611 -0.9869
vn -0.5000 0.0000 -0.8660
vn -0.4935 0.1611 -0.8547
vn -0.8660 0.0000 -0.5000
vn -0.8547 0.1611 -0.4935
vn -0.1560 0.9836 0.0901
vn -0.0901 0.9836 0.1560
vn -0.0901 0.9836 -0.1560
vn -0.1560 0.9836 -0.0901
vn -0.8187 0.3262 0.4726
vn -0.9453 0.3262 -0.0000
vn -0.4726 0.3262 0.8187
vn -0.0000 0.3262 0.9453
vn 0.4726 0.3262 0.8187
vn 0.8187 0.3262 0.4726
vn 0.9453 0.3262 0.0000
vn 0.8187 0.3262 -0.4726
vn 0.4726 0.3262 -0.8187
vn 0.0000 0.3262 -0.9453
vn -0.4726 0.3262 -0.8186
vn -0.8187 0.3262 -0.4726
vn -0.1801 0.9836 -0.0000
vn -0.2654 0.9519 -0.1532
vn -0.3065 0.9519 -0.0000
vn -0.2654 0.9519 0.1532
vn -0.1532 0.9519 0.2654
vn -0.0000 0.9836 0.1801
vn -0.0000 0.9519 0.3065
vn 0.0901 0.9836 0.1560
vn 0.1532 0.9519 0.2654
vn 0.1560 0.9836 0.0901
vn 0.2654 0.9519 0.1532
vn 0.1801 0.9836 0.0000
vn 0.3065 0.9519 0.0000
vn 0.1560 0.9836 -0.0901
vn 0.2654 0.9519 -0.1532
vn 0.0901 0.9836 -0.1560
vn 0.1532 0.9519 -0.2654
vn 0.0000 0.9836 -0.1801
vn 0.0000 0.9519 -0.3065
vn -0.1532 0.9519 -0.2654
vn 1.0000 0.0000 -0.0000
vn 0.9869 0.1611 -0.0000
vn -1.0000 0.0000 0.0000
vn -0.0000 0.0000 -1.0000
vn -0.0000 0.1611 -0.9869
vn 0.9453 0.3262 -0.0000
vn -0.4727 0.3262 0.8187
vn -0.8186 0.3262 0.4726
vn -0.8186 0.3262 -0.4726
vn -0.4726 0.3262 -0.8187
vn -0.0000 0.3262 -0.9453
vn 0.4726 0.3262 -0.8186
vn 0.1801 0.9836 -0.0000
vn 0.3065 0.9519 -0.0000
vn 0.0000 0.9836 0.1801
vn 0.0000 0.9519 0.3065
vn -0.0000 0.9519 -0.3065
# 131 vertex normals

vt 0.0556 0.3568 0.0000
vt 0.3760 0.9679 0.0000
vt 0.3760 0.3228 0.0000
vt 0.9649 0.3228 0.0000
vt 0.9649 0.9679 0.0000
vt 0.0479 0.0363 0.0000
vt 0.3760 0.0234 0.0000
vt 0.9649 0.0234 0.0000
vt 0.9649 0.2812 0.0000
vt 0.3760 0.2812 0.0000
vt 0.0489 0.0374 0.0000
vt 0.0538 0.8276 0.0000
vt 0.0889 0.7922 0.0000
vt 0.0898 0.9590 0.0000
vt 0.0543 0.9239 0.0000
vt 0.1852 0.7917 0.0000
vt 0.1860 0.9585 0.0000
vt 0.1380 0.9716 0.0000
vt 0.1370 0.7790 0.0000
vt 0.2206 0.8268 0.0000
vt 0.2211 0.9230 0.0000
vt 0.2337 0.8748 0.0000
vt 0.0412 0.8758 0.0000
vt 0.2207 0.5797 0.0000
vt 0.2202 0.6760 0.0000
vt 0.1848 0.7124 0.0000
vt 0.1856 0.5456 0.0000
vt 0.0892 0.5438 0.0000
vt 0.1375 0.5324 0.0000
vt 0.1365 0.7250 0.0000
vt 0.0883 0.7106 0.0000
vt 0.0537 0.5789 0.0000
vt 0.0532 0.6751 0.0000
vt 0.0406 0.6269 0.0000
vt 0.2334 0.6279 0.0000
# 35 texture coords

o Card
g Card
f 1/1/1 2/1/1 3/1/1 
f 3/1/1 4/1/1 1/1/1 
f 5/2/2 6/3/2 7/4/2 
f 7/4/2 8/5/2 5/2/2 
f 9/6/3 10/6/4 11/6/5 
f 11/6/5 12/6/6 9/6/3 
f 13/6/7 14/6/8 15/6/9 
f 15/6/9 16/6/10 13/6/7 
f 17/6/11 18/6/12 19/6/13 
f 19/6/13 20/6/14 17/6/11 
f 21/6/15 22/6/16 23/6/17 
f 23/6/17 24/6/18 21/6/15 
f 25/6/19 26/6/20 27/6/21 
f 27/6/21 28/6/22 25/6/19 
f 29/6/23 25/6/19 28/6/22 
f 28/6/22 30/6/24 29/6/23 
f 31/6/25 29/6/23 30/6/24 
f 30/6/24 32/6/26 31/6/25 
f 26/6/20 31/6/25 32/6/26 
f 32/6/26 27/6/21 26/6/20 
f 33/6/27 34/6/28 35/6/29 
f 35/6/29 36/6/30 33/6/27 
f 37/6/31 33/6/27 36/6/30 
f 36/6/30 38/6/32 37/6/31 
f 39/6/33 37/6/31 38/6/32 
f 38/6/32 40/6/34 39/6/33 
f 34/6/28 39/6/33 40/6/34 
f 40/6/34 35/6/29 34/6/28 
f 9/6/3 12/6/6 27/6/21 
f 27/6/21 32/6/26 9/6/3 
f 10/6/4 9/6/3 32/6/26 
f 32/6/26 36/6/30 10/6/4 
f 11/6/5 10/6/4 36/6/30 
f 36/6/30 35/6/29 11/6/5 
f 12/6/6 11/6/5 35/6/29 
f 35/6/29 27/6/21 12/6/6 
f 13/6/7 16/6/10 32/6/26 
f 32/6/26 30/6/24 13/6/7 
f 14/6/8 13/6/7 30/6/24 
f 30/6/24 38/6/32 14/6/8 
f 15/6/9 14/6/8 38/6/32 
f 38/6/32 36/6/30 15/6/9 
f 16/6/10 15/6/9 36/6/30 
f 36/6/30 32/6/26 16/6/10 
f 17/6/11 20/6/14 30/6/24 
f 30/6/24 28/6/22 17/6/11 
f 18/6/12 17/6/11 28/6/22 
f 28/6/22 40/6/34 18/6/12 
f 19/6/13 18/6/12 40/6/34 
f 40/6/34 38/6/32 19/6/13 
f 20/6/14 19/6/13 38/6/32 
f 38/6/32 30/6/24 20/6/14 
f 21/6/15 24/6/18 28/6/22 
f 28/6/22 27/6/21 21/6/15 
f 22/6/16 21/6/15 27/6/21 
f 27/6/21 35/6/29 22/6/16 
f 23/6/17 22/6/16 35/6/29 
f 35/6/29 40/6/34 23/6/17 
f 24/6/18 23/6/17 40/6/34 
f 40/6/34 28/6/22 24/6/18 
f 26/6/20 25/6/19 1/6/35 
f 1/6/35 4/6/36 26/6/20 
f 25/6/19 29/6/23 2/6/37 
f 2/6/37 1/6/35 25/6/19 
f 29/6/23 31/6/25 3/6/38 
f 3/6/38 2/6/37 29/6/23 
f 31/6/25 26/6/20 4/6/36 
f 4/6/36 3/6/38 31/6/25 
f 34/6/28 33/6/27 41/6/39 
f 41/6/39 42/6/40 34/6/28 
f 37/6/31 43/6/41 44/6/42 
f 37/6/31 44/6/42 45/6/43 
f 33/6/27 37/6/31 45/6/43 
f 33/6/27 45/6/43 41/6/39 
f 37/6/31 39/6/33 46/6/44 
f 46/6/44 43/6/41 37/6/31 
f 34/6/28 42/6/40 47/6/45 
f 39/6/33 34/6/28 47/6/45 
f 39/6/33 47/6/45 48/6/46 
f 39/6/33 48/6/46 46/6/44 
f 49/7/2 50/8/2 51/9/2 
f 51/9/2 52/10/2 49/7/2 
f 42/6/40 41/6/39 5/6/47 
f 5/6/47 8/6/48 42/6/40 
f 45/6/43 6/6/49 5/6/47 
f 5/6/47 41/6/39 45/6/43 
f 47/6/45 7/6/50 6/6/49 
f 6/6/49 45/6/43 47/6/45 
f 47/6/45 42/6/40 8/6/48 
f 8/6/48 7/6/50 47/6/45 
f 43/6/41 46/6/44 50/6/51 
f 50/6/51 49/6/52 43/6/41 
f 48/6/46 51/6/53 50/6/51 
f 50/6/51 46/6/44 48/6/46 
f 44/6/42 52/6/54 51/6/53 
f 51/6/53 48/6/46 44/6/42 
f 43/6/41 49/6/52 52/6/54 
f 52/6/54 44/6/42 43/6/41 
f 48/6/46 47/6/45 45/6/43 
f 45/6/43 44/6/42 48/6/46 
f 53/11/55 54/11/56 55/11/57 
f 55/11/57 56/11/58 53/11/55 
f 57/11/59 58/11/60 54/11/56 
f 54/11/56 53/11/55 57/11/59 
f 59/11/61 60/11/62 58/11/60 
f 58/11/60 57/11/59 59/11/61 
f 61/11/63 62/11/64 60/11/62 
f 60/11/62 59/11/61 61/11/63 
f 63/11/65 64/11/66 62/11/64 
f 62/11/64 61/11/63 63/11/65 
f 65/11/67 66/11/68 64/11/66 
f 64/11/66 63/11/65 65/11/67 
f 67/11/69 68/11/70 66/11/68 
f 66/11/68 65/11/67 67/11/69 
f 69/11/71 70/11/72 68/11/70 
f 68/11/70 67/11/69 69/11/71 
f 71/11/73 72/11/74 70/11/72 
f 70/11/72 69/11/71 71/11/73 
f 73/11/75 74/11/76 72/11/74 
f 72/11/74 71/11/73 73/11/75 
f 75/11/77 76/11/78 74/11/76 
f 74/11/76 73/11/75 75/11/77 
f 56/11/58 55/11/57 76/11/78 
f 76/11/78 75/11/77 56/11/58 
f 77/12/79 78/13/80 79/14/81 
f 79/14/81 80/15/82 77/12/79 
f 55/11/57 54/11/56 81/11/83 
f 81/11/83 82/11/84 55/11/57 
f 54/11/56 58/11/60 83/11/85 
f 83/11/85 81/11/83 54/11/56 
f 58/11/60 60/11/62 84/11/86 
f 84/11/86 83/11/85 58/11/60 
f 60/11/62 62/11/64 85/11/87 
f 85/11/87 84/11/86 60/11/62 
f 62/11/64 64/11/66 86/11/88 
f 86/11/88 85/11/87 62/11/64 
f 64/11/66 66/11/68 87/11/89 
f 87/11/89 86/11/88 64/11/66 
f 66/11/68 68/11/70 88/11/90 
f 88/11/90 87/11/89 66/11/68 
f 68/11/70 70/11/72 89/11/91 
f 89/11/91 88/11/90 68/11/70 
f 70/11/72 72/11/74 90/11/92 
f 90/11/92 89/11/91 70/11/72 
f 72/11/74 74/11/76 91/11/93 
f 91/11/93 90/11/92 72/11/74 
f 74/11/76 76/11/78 92/11/94 
f 92/11/94 91/11/93 74/11/76 
f 76/11/78 55/11/57 82/11/84 
f 82/11/84 92/11/94 76/11/78 
f 93/11/95 80/11/82 92/11/96 
f 92/11/96 82/11/97 93/11/95 
f 77/11/79 93/11/95 82/11/97 
f 82/11/97 81/11/98 77/11/79 
f 78/11/80 77/11/79 81/11/98 
f 81/11/98 83/11/99 78/11/80 
f 94/11/100 78/11/80 83/11/99 
f 83/11/99 84/11/101 94/11/100 
f 95/11/102 94/11/100 84/11/101 
f 84/11/101 85/11/103 95/11/102 
f 96/11/104 95/11/102 85/11/103 
f 85/11/103 86/11/105 96/11/104 
f 97/11/106 96/11/104 86/11/105 
f 86/11/105 87/11/107 97/11/106 
f 98/11/108 97/11/106 87/11/107 
f 87/11/107 88/11/109 98/11/108 
f 99/11/110 98/11/108 88/11/109 
f 88/11/109 89/11/111 99/11/110 
f 100/11/112 99/11/110 89/11/111 
f 89/11/111 90/11/113 100/11/112 
f 79/11/81 100/11/112 90/11/113 
f 90/11/113 91/11/114 79/11/81 
f 80/11/82 79/11/81 91/11/114 
f 91/11/114 92/11/96 80/11/82 
f 95/16/102 99/17/110 100/18/112 
f 100/18/112 94/19/100 95/16/102 
f 96/20/104 98/21/108 99/17/110 
f 99/17/110 95/16/102 96/20/104 
f 96/20/104 97/22/106 98/21/108 
f 94/19/100 100/18/112 79/14/81 
f 79/14/81 78/13/80 94/19/100 
f 80/15/82 93/23/95 77/12/79 
f 101/11/65 102/11/115 103/11/116 
f 103/11/116 104/11/66 101/11/65 
f 105/11/63 101/11/65 104/11/66 
f 104/11/66 106/11/64 105/11/63 
f 107/11/61 105/11/63 106/11/64 
f 106/11/64 108/11/62 107/11/61 
f 109/11/59 107/11/61 108/11/62 
f 108/11/62 110/11/60 109/11/59 
f 111/11/55 109/11/59 110/11/60 
f 110/11/60 112/11/56 111/11/55 
f 113/11/117 111/11/55 112/11/56 
f 112/11/56 114/11/57 113/11/117 
f 115/11/77 113/11/117 114/11/57 
f 114/11/57 116/11/78 115/11/77 
f 117/11/75 115/11/77 116/11/78 
f 116/11/78 118/11/76 117/11/75 
f 119/11/118 117/11/75 118/11/76 
f 118/11/76 120/11/119 119/11/118 
f 121/11/71 119/11/118 120/11/119 
f 120/11/119 122/11/72 121/11/71 
f 123/11/69 121/11/71 122/11/72 
f 122/11/72 124/11/70 123/11/69 
f 102/11/115 123/11/69 124/11/70 
f 124/11/70 103/11/116 102/11/115 
f 125/24/104 126/25/108 127/26/110 
f 127/26/110 128/27/102 125/24/104 
f 103/11/116 129/11/120 130/11/88 
f 130/11/88 104/11/66 103/11/116 
f 104/11/66 130/11/88 131/11/87 
f 131/11/87 106/11/64 104/11/66 
f 106/11/64 131/11/87 132/11/86 
f 132/11/86 108/11/62 106/11/64 
f 108/11/62 132/11/86 133/11/121 
f 133/11/121 110/11/60 108/11/62 
f 110/11/60 133/11/121 134/11/122 
f 134/11/122 112/11/56 110/11/60 
f 112/11/56 134/11/122 135/11/84 
f 135/11/84 114/11/57 112/11/56 
f 114/11/57 135/11/84 136/11/123 
f 136/11/123 116/11/78 114/11/57 
f 116/11/78 136/11/123 137/11/124 
f 137/11/124 118/11/76 116/11/78 
f 118/11/76 137/11/124 138/11/125 
f 138/11/125 120/11/119 118/11/76 
f 120/11/119 138/11/125 139/11/126 
f 139/11/126 122/11/72 120/11/119 
f 122/11/72 139/11/126 140/11/90 
f 140/11/90 124/11/70 122/11/72 
f 124/11/70 140/11/90 129/11/120 
f 129/11/120 103/11/116 124/11/70 
f 141/11/127 129/11/128 140/11/109 
f 140/11/109 126/11/108 141/11/127 
f 125/11/104 130/11/105 129/11/128 
f 129/11/128 141/11/127 125/11/104 
f 128/11/102 131/11/103 130/11/105 
f 130/11/105 125/11/104 128/11/102 
f 142/11/129 132/11/130 131/11/103 
f 131/11/103 128/11/102 142/11/129 
f 143/11/80 133/11/99 132/11/130 
f 132/11/130 142/11/129 143/11/80 
f 144/11/79 134/11/98 133/11/99 
f 133/11/99 143/11/80 144/11/79 
f 145/11/95 135/11/97 134/11/98 
f 134/11/98 144/11/79 145/11/95 
f 146/11/82 136/11/96 135/11/97 
f 135/11/97 145/11/95 146/11/82 
f 147/11/81 137/11/114 136/11/96 
f 136/11/96 146/11/82 147/11/81 
f 148/11/112 138/11/131 137/11/114 
f 137/11/114 147/11/81 148/11/112 
f 127/11/110 139/11/111 138/11/131 
f 138/11/131 148/11/112 127/11/110 
f 126/11/108 140/11/109 139/11/111 
f 139/11/111 127/11/110 126/11/108 
f 143/28/80 142/29/129 148/30/112 
f 148/30/112 147/31/81 143/28/80 
f 144/32/79 143/28/80 147/31/81 
f 147/31/81 146/33/82 144/32/79 
f 144/32/79 146/33/82 145/34/95 
f 142/29/129 128/27/102 127/26/110 
f 127/26/110 148/30/112 142/29/129 
f 126/25/108 125/24/104 141/35/127 
# 264 faces

