# 3ds Max Wavefront OBJ Exporter v0.99 - (c)2007 guruware
# File Created: 17.10.2024 10:59:07

#
# object SpawnEffect
#

v  46.6469 27.7083 0.0000
v  28.8687 12.1599 -7.7353
v  23.8922 -0.0000 -0.0000
v  20.6912 -0.0000 -11.9461
v  23.0781 -0.0000 -6.1838
v  40.3974 27.7083 -23.3234
v  21.1334 12.1599 -21.1334
v  11.9461 -0.0000 -20.6912
v  16.8943 -0.0000 -16.8943
v  23.3234 27.7083 -40.3974
v  7.7353 12.1599 -28.8687
v  0.0000 -0.0000 -23.8922
v  6.1838 -0.0000 -23.0781
v  0.0000 27.7083 -46.6469
v  -7.7353 12.1599 -28.8687
v  -11.9461 -0.0000 -20.6912
v  -6.1838 -0.0000 -23.0781
v  -23.3234 27.7083 -40.3974
v  -21.1334 12.1599 -21.1334
v  -20.6912 -0.0000 -11.9461
v  -16.8943 -0.0000 -16.8943
v  -40.3974 27.7083 -23.3234
v  -28.8687 12.1599 -7.7354
v  -23.8922 -0.0000 -0.0000
v  -23.0781 -0.0000 -6.1838
v  -46.6469 27.7083 -0.0000
v  -28.8687 12.1599 7.7353
v  -20.6912 -0.0000 11.9461
v  -23.0781 -0.0000 6.1837
v  -40.3974 27.7083 23.3234
v  -21.1334 12.1599 21.1333
v  -11.9461 -0.0000 20.6912
v  -16.8943 -0.0000 16.8943
v  -23.3234 27.7083 40.3974
v  -7.7354 12.1599 28.8687
v  -0.0000 -0.0000 23.8922
v  -6.1838 -0.0000 23.0781
v  -0.0000 27.7083 46.6469
v  7.7353 12.1599 28.8687
v  11.9461 -0.0000 20.6912
v  6.1837 -0.0000 23.0781
v  23.3234 27.7083 40.3974
v  21.1333 12.1599 21.1334
v  20.6912 -0.0000 11.9461
v  16.8943 -0.0000 16.8943
v  40.3974 27.7083 23.3235
v  28.8687 12.1599 7.7354
v  23.0781 -0.0000 6.1838
v  46.8231 27.7083 0.0000
v  23.9825 -0.0000 -0.0000
v  28.9778 12.1599 -7.7646
v  23.1653 -0.0000 -6.2071
v  20.7694 -0.0000 -11.9912
v  40.5500 27.7083 -23.4116
v  21.2132 12.1599 -21.2132
v  16.9582 -0.0000 -16.9582
v  11.9912 -0.0000 -20.7694
v  23.4116 27.7083 -40.5500
v  7.7646 12.1599 -28.9778
v  6.2071 -0.0000 -23.1653
v  0.0000 -0.0000 -23.9825
v  0.0000 27.7083 -46.8231
v  -7.7646 12.1599 -28.9778
v  -6.2071 -0.0000 -23.1653
v  -11.9912 -0.0000 -20.7694
v  -23.4115 27.7083 -40.5500
v  -21.2132 12.1599 -21.2132
v  -16.9582 -0.0000 -16.9582
v  -20.7694 -0.0000 -11.9912
v  -40.5500 27.7083 -23.4116
v  -28.9778 12.1599 -7.7646
v  -23.1653 -0.0000 -6.2071
v  -23.9825 -0.0000 -0.0000
v  -46.8231 27.7083 -0.0000
v  -28.9778 12.1599 7.7646
v  -23.1653 -0.0000 6.2071
v  -20.7694 -0.0000 11.9912
v  -40.5500 27.7083 23.4115
v  -21.2132 12.1599 21.2132
v  -16.9582 -0.0000 16.9581
v  -11.9912 -0.0000 20.7694
v  -23.4116 27.7083 40.5500
v  -7.7646 12.1599 28.9778
v  -6.2071 -0.0000 23.1653
v  -0.0000 -0.0000 23.9825
v  -0.0000 27.7083 46.8231
v  7.7646 12.1599 28.9778
v  6.2071 -0.0000 23.1653
v  11.9912 -0.0000 20.7694
v  23.4115 27.7083 40.5500
v  21.2132 12.1599 21.2132
v  16.9581 -0.0000 16.9582
v  20.7694 -0.0000 11.9912
v  40.5500 27.7083 23.4116
v  28.9778 12.1599 7.7646
v  23.1653 -0.0000 6.2071
# 96 vertices

vn -0.7728 0.6346 0.0000
vn -0.7977 0.5639 0.2137
vn -0.8607 0.5091 -0.0000
vn -0.7454 0.5091 0.4304
vn -0.8664 0.4422 0.2321
vn -0.6693 0.6346 0.3864
vn -0.5839 0.5639 0.5839
vn -0.4304 0.5091 0.7454
vn -0.6342 0.4422 0.6342
vn -0.3864 0.6346 0.6693
vn -0.2137 0.5639 0.7977
vn -0.0000 0.5091 0.8607
vn -0.2321 0.4422 0.8664
vn 0.0000 0.6346 0.7728
vn 0.2137 0.5639 0.7977
vn 0.4304 0.5091 0.7454
vn 0.2321 0.4422 0.8664
vn 0.3864 0.6346 0.6693
vn 0.5839 0.5639 0.5839
vn 0.7454 0.5091 0.4304
vn 0.6342 0.4422 0.6342
vn 0.6693 0.6346 0.3864
vn 0.7977 0.5639 0.2137
vn 0.8607 0.5091 0.0000
vn 0.8664 0.4422 0.2321
vn 0.7728 0.6346 0.0000
vn 0.7977 0.5639 -0.2137
vn 0.7454 0.5091 -0.4304
vn 0.8664 0.4422 -0.2321
vn 0.6693 0.6346 -0.3864
vn 0.5839 0.5639 -0.5839
vn 0.4304 0.5091 -0.7454
vn 0.6342 0.4422 -0.6342
vn 0.3864 0.6346 -0.6693
vn 0.2137 0.5639 -0.7977
vn 0.0000 0.5091 -0.8607
vn 0.2321 0.4422 -0.8664
vn 0.0000 0.6346 -0.7728
vn -0.2137 0.5639 -0.7977
vn -0.4304 0.5091 -0.7454
vn -0.2321 0.4422 -0.8664
vn -0.3864 0.6346 -0.6693
vn -0.5839 0.5639 -0.5839
vn -0.7454 0.5091 -0.4304
vn -0.6342 0.4422 -0.6342
vn -0.6693 0.6346 -0.3864
vn -0.7977 0.5639 -0.2137
vn -0.8664 0.4422 -0.2321
vn 0.7716 -0.6361 0.0000
vn 0.8598 -0.5106 0.0000
vn 0.7968 -0.5653 -0.2135
vn 0.8657 -0.4435 -0.2320
vn 0.7446 -0.5106 -0.4299
vn 0.6683 -0.6361 -0.3858
vn 0.5833 -0.5653 -0.5833
vn 0.6338 -0.4435 -0.6338
vn 0.4299 -0.5106 -0.7446
vn 0.3858 -0.6361 -0.6683
vn 0.2135 -0.5653 -0.7968
vn 0.2320 -0.4435 -0.8657
vn 0.0000 -0.5106 -0.8598
vn -0.0000 -0.6361 -0.7716
vn -0.2135 -0.5653 -0.7968
vn -0.2320 -0.4435 -0.8657
vn -0.4299 -0.5106 -0.7446
vn -0.3858 -0.6361 -0.6683
vn -0.5833 -0.5653 -0.5833
vn -0.6338 -0.4435 -0.6338
vn -0.7446 -0.5106 -0.4299
vn -0.6683 -0.6361 -0.3858
vn -0.7968 -0.5653 -0.2135
vn -0.8657 -0.4435 -0.2320
vn -0.8598 -0.5106 -0.0000
vn -0.7716 -0.6361 -0.0000
vn -0.7968 -0.5653 0.2135
vn -0.8657 -0.4435 0.2320
vn -0.7446 -0.5106 0.4299
vn -0.6683 -0.6361 0.3858
vn -0.5833 -0.5653 0.5833
vn -0.6338 -0.4435 0.6338
vn -0.4299 -0.5106 0.7446
vn -0.3858 -0.6361 0.6683
vn -0.2135 -0.5653 0.7968
vn -0.2320 -0.4435 0.8657
vn -0.0000 -0.5106 0.8598
vn -0.0000 -0.6361 0.7716
vn 0.2135 -0.5653 0.7968
vn 0.2320 -0.4435 0.8657
vn 0.4299 -0.5106 0.7446
vn 0.3858 -0.6361 0.6683
vn 0.5833 -0.5653 0.5833
vn 0.6338 -0.4435 0.6338
vn 0.7446 -0.5106 0.4299
vn 0.6682 -0.6361 0.3858
vn 0.7968 -0.5653 0.2135
vn 0.8657 -0.4435 0.2320
# 96 vertex normals

vt 0.0778 0.7448 0.0000
vt 0.2037 0.5809 0.0000
vt 0.3288 0.5975 0.0000
vt 0.3026 0.5026 0.0000
vt 0.3097 0.5517 0.0000
vt 0.0116 0.5047 0.0000
vt 0.2025 0.4257 0.0000
vt 0.3274 0.4074 0.0000
vt 0.3090 0.4534 0.0000
vt 0.0743 0.2637 0.0000
vt 0.2792 0.2908 0.0000
vt 0.3965 0.3373 0.0000
vt 0.3575 0.3680 0.0000
vt 0.2491 0.0863 0.0000
vt 0.4130 0.2122 0.0000
vt 0.4913 0.3111 0.0000
vt 0.4422 0.3183 0.0000
vt 0.4892 0.0201 0.0000
vt 0.5682 0.2111 0.0000
vt 0.5865 0.3359 0.0000
vt 0.5405 0.3175 0.0000
vt 0.7302 0.0828 0.0000
vt 0.7032 0.2877 0.0000
vt 0.6566 0.4050 0.0000
vt 0.6259 0.3660 0.0000
vt 0.9076 0.2576 0.0000
vt 0.7817 0.4215 0.0000
vt 0.6828 0.4998 0.0000
vt 0.6757 0.4508 0.0000
vt 0.9738 0.4977 0.0000
vt 0.7829 0.5767 0.0000
vt 0.6580 0.5951 0.0000
vt 0.6764 0.5490 0.0000
vt 0.9111 0.7387 0.0000
vt 0.7063 0.7117 0.0000
vt 0.5890 0.6651 0.0000
vt 0.6279 0.6344 0.0000
vt 0.7363 0.9161 0.0000
vt 0.5724 0.7903 0.0000
vt 0.4941 0.6913 0.0000
vt 0.5432 0.6842 0.0000
vt 0.4962 0.9823 0.0000
vt 0.4172 0.7914 0.0000
vt 0.3989 0.6665 0.0000
vt 0.4449 0.6849 0.0000
vt 0.2552 0.9196 0.0000
vt 0.2823 0.7148 0.0000
vt 0.3595 0.6364 0.0000
# 48 texture coords

o SpawnEffect
g SpawnEffect
f 1/1/1 2/2/2 3/3/3 
f 2/2/2 4/4/4 5/5/5 
f 6/6/6 7/7/7 4/4/4 
f 7/7/7 8/8/8 9/9/9 
f 10/10/10 11/11/11 8/8/8 
f 11/11/11 12/12/12 13/13/13 
f 14/14/14 15/15/15 12/12/12 
f 15/15/15 16/16/16 17/17/17 
f 18/18/18 19/19/19 16/16/16 
f 19/19/19 20/20/20 21/21/21 
f 22/22/22 23/23/23 20/20/20 
f 23/23/23 24/24/24 25/25/25 
f 26/26/26 27/27/27 24/24/24 
f 27/27/27 28/28/28 29/29/29 
f 30/30/30 31/31/31 28/28/28 
f 31/31/31 32/32/32 33/33/33 
f 34/34/34 35/35/35 32/32/32 
f 35/35/35 36/36/36 37/37/37 
f 38/38/38 39/39/39 36/36/36 
f 39/39/39 40/40/40 41/41/41 
f 42/42/42 43/43/43 40/40/40 
f 43/43/43 44/44/44 45/45/45 
f 46/46/46 47/47/47 44/44/44 
f 47/47/47 3/3/3 48/48/48 
f 2/2/2 5/5/5 3/3/3 
f 2/2/2 6/6/6 4/4/4 
f 7/7/7 9/9/9 4/4/4 
f 7/7/7 10/10/10 8/8/8 
f 11/11/11 13/13/13 8/8/8 
f 11/11/11 14/14/14 12/12/12 
f 15/15/15 17/17/17 12/12/12 
f 15/15/15 18/18/18 16/16/16 
f 19/19/19 21/21/21 16/16/16 
f 19/19/19 22/22/22 20/20/20 
f 23/23/23 25/25/25 20/20/20 
f 23/23/23 26/26/26 24/24/24 
f 27/27/27 29/29/29 24/24/24 
f 27/27/27 30/30/30 28/28/28 
f 31/31/31 33/33/33 28/28/28 
f 31/31/31 34/34/34 32/32/32 
f 35/35/35 37/37/37 32/32/32 
f 35/35/35 38/38/38 36/36/36 
f 39/39/39 41/41/41 36/36/36 
f 39/39/39 42/42/42 40/40/40 
f 43/43/43 45/45/45 40/40/40 
f 43/43/43 46/46/46 44/44/44 
f 47/47/47 48/48/48 44/44/44 
f 47/47/47 1/1/1 3/3/3 
f 49/1/49 50/3/50 51/2/51 
f 51/2/51 52/5/52 53/4/53 
f 54/6/54 53/4/53 55/7/55 
f 55/7/55 56/9/56 57/8/57 
f 58/10/58 57/8/57 59/11/59 
f 59/11/59 60/13/60 61/12/61 
f 62/14/62 61/12/61 63/15/63 
f 63/15/63 64/17/64 65/16/65 
f 66/18/66 65/16/65 67/19/67 
f 67/19/67 68/21/68 69/20/69 
f 70/22/70 69/20/69 71/23/71 
f 71/23/71 72/25/72 73/24/73 
f 74/26/74 73/24/73 75/27/75 
f 75/27/75 76/29/76 77/28/77 
f 78/30/78 77/28/77 79/31/79 
f 79/31/79 80/33/80 81/32/81 
f 82/34/82 81/32/81 83/35/83 
f 83/35/83 84/37/84 85/36/85 
f 86/38/86 85/36/85 87/39/87 
f 87/39/87 88/41/88 89/40/89 
f 90/42/90 89/40/89 91/43/91 
f 91/43/91 92/45/92 93/44/93 
f 94/46/94 93/44/93 95/47/95 
f 95/47/95 96/48/96 50/3/50 
f 51/2/51 50/3/50 52/5/52 
f 51/2/51 53/4/53 54/6/54 
f 55/7/55 53/4/53 56/9/56 
f 55/7/55 57/8/57 58/10/58 
f 59/11/59 57/8/57 60/13/60 
f 59/11/59 61/12/61 62/14/62 
f 63/15/63 61/12/61 64/17/64 
f 63/15/63 65/16/65 66/18/66 
f 67/19/67 65/16/65 68/21/68 
f 67/19/67 69/20/69 70/22/70 
f 71/23/71 69/20/69 72/25/72 
f 71/23/71 73/24/73 74/26/74 
f 75/27/75 73/24/73 76/29/76 
f 75/27/75 77/28/77 78/30/78 
f 79/31/79 77/28/77 80/33/80 
f 79/31/79 81/32/81 82/34/82 
f 83/35/83 81/32/81 84/37/84 
f 83/35/83 85/36/85 86/38/86 
f 87/39/87 85/36/85 88/41/88 
f 87/39/87 89/40/89 90/42/90 
f 91/43/91 89/40/89 92/45/92 
f 91/43/91 93/44/93 94/46/94 
f 95/47/95 93/44/93 96/48/96 
f 95/47/95 50/3/50 49/1/49 
# 96 faces

